<svg width="24" height="24" viewBox="0 0 24 24" fill="none" xmlns="http://www.w3.org/2000/svg">
    <path d="M0 2.333C0 1.597.597 1 1.333 1h21.334C23.403 1 24 1.597 24 2.333V21c0 .736-.597 1.333-1.333 1.333H1.333A1.333 1.333 0 0 1 0 21V2.333Z" fill="#fff"/>
    <path d="M4 5.133V1.688h.667v3.445h14.666V1.688H20v3.445h4V5.8h-4v3.466h4v.667h-4V13.4h4v.667h-4v3.466h4v.667h-4v4.133h-.667V18.2H4.667v4.133H4V18.2H0v-.667h4v-3.466H0V13.4h4V9.933H0v-.667h4V5.8H0v-.667h4Zm.667.667v3.466h14.666V5.8H4.667Zm14.666 4.133H4.667V13.4h14.666V9.933Zm0 4.134H4.667v3.466h14.666v-3.466Z" fill="#1F2329" fill-opacity=".15"/>
    <path d="M4.667 1.333h-.334v4.133H11V1.333H4.667Zm0 4.133h-.334V9.6h13.334V5.466h-13Zm0 4.134h-.334v4.133H9V9.6H4.667Zm0 4.134h-.334v4.133h10v-4.133H4.667Zm0 4.133h-.334V22h15.334v-4.133h-15Z" fill="#F98A86" stroke="#D07471" stroke-width=".667"/>
    <path d="M.333 2.333a1 1 0 0 1 1-1h21.334a1 1 0 0 1 1 1V21a1 1 0 0 1-1 1H1.333a1 1 0 0 1-1-1V2.333Z" stroke="#8F959E" stroke-width=".667"/>
  </svg>