<svg width="24" height="24" viewBox="0 0 24 24" fill="none" xmlns="http://www.w3.org/2000/svg">
    <path d="M0 2.333C0 1.597.597 1 1.333 1h21.334C23.403 1 24 1.597 24 2.333V21c0 .736-.597 1.333-1.333 1.333H1.333A1.333 1.333 0 0 1 0 21V2.333Z" fill="#fff"/>
    <path d="M4 1.667h16V5.8H4V1.667Z" fill="#6CBF63"/>
    <path d="M4 5.8h16v4.133H4V5.8Z" fill="#97CC63"/>
    <path d="M4 9.934h16v4.133H4V9.934Z" fill="#B3D562"/>
    <path d="M4 14.066h16V18.2H4v-4.134Z" fill="#D7DF62"/>
    <path d="M4 18.2h16v4.134H4V18.2Z" fill="#F9EA61"/>
    <path d="M4 5.133V1.688h.667v3.445h14.666V1.688H20v3.445h4V5.8h-4v3.467h4v.666h-4V13.4h4v.666h-4v3.467h4v.667h-4v4.133h-.667V18.2H4.667v4.133H4V18.2H0v-.667h4v-3.467H0V13.4h4V9.933H0v-.666h4V5.8H0v-.667h4Zm.667.667v3.467h14.666V5.8H4.667Zm14.666 4.133H4.667V13.4h14.666V9.933Zm0 4.133H4.667v3.467h14.666v-3.467Z" fill="#1F2329" fill-opacity=".15"/>
    <path d="M.333 2.333a1 1 0 0 1 1-1h21.334a1 1 0 0 1 1 1V21a1 1 0 0 1-1 1H1.333a1 1 0 0 1-1-1V2.333Z" stroke="#8F959E" stroke-width=".667"/>
  </svg>