<svg width="24" height="24" viewBox="0 0 24 24" fill="none" xmlns="http://www.w3.org/2000/svg">
    <path d="M0 21c0 .736.597 1.333 1.333 1.333h21.334c.736 0 1.333-.597 1.333-1.333V2.333C24 1.597 23.403 1 22.667 1H1.333C.597 1 0 1.597 0 2.333V21Z" fill="#fff"/>
    <path d="M4 22.334h16V18.2H4v4.134Z" fill="#6CBF63"/>
    <path d="M4 18.2h16v-4.133H4V18.2Z" fill="#97CC63"/>
    <path d="M4 14.067h16V9.934H4v4.133Z" fill="#B3D562"/>
    <path d="M4 9.933h16V5.8H4v4.133Z" fill="#D7DF62"/>
    <path d="M4 5.8h16V1.667H4V5.8Z" fill="#F9EA61"/>
    <path d="M4.667 18.2v3.445H4V18.2H0v-.667h4v-3.466H0V13.4h4V9.933H0v-.666h4V5.8H0v-.667h4V1h.667v4.133h14.666V1H20v4.133h4V5.8h-4v3.467h4v.666h-4V13.4h4v.667h-4v3.466h4v.667h-4v3.445h-.667V18.2H4.667Zm0-.667h14.666v-3.466H4.667v3.466Zm0-4.133h14.666V9.933H4.667V13.4Zm0-4.133h14.666V5.8H4.667v3.467Z" fill="#1F2329" fill-opacity=".15"/>
    <path d="M1.333 22a1 1 0 0 1-1-1V2.333a1 1 0 0 1 1-1h21.334a1 1 0 0 1 1 1V21a1 1 0 0 1-1 1H1.333Z" stroke="#8F959E" stroke-width=".667"/>
  </svg>